<svg viewBox="0 0 720 200" xmlns="http://www.w3.org/2000/svg" class="w-full h-auto"><g><rect x="20" y="60" width="140" height="80" rx="8" fill="#E21C2A" opacity="0.1" stroke="#E21C2A" stroke-width="2"></rect><text x="90" y="100" text-anchor="middle" dominant-baseline="middle" font-size="14" fill="#0F1115" class="font-medium">Problem erfassen</text><path d="M 160 100 L 200 100" stroke="#E21C2A" stroke-width="2" marker-end="url(#arrow-0)"></path><defs><marker id="arrow-0" markerWidth="10" markerHeight="10" refX="9" refY="3" orient="auto" markerUnits="strokeWidth"><path d="M0,0 L0,6 L9,3 z" fill="#E21C2A"></path></marker></defs></g><g><rect x="200" y="60" width="140" height="80" rx="8" fill="#E21C2A" opacity="0.1" stroke="#E21C2A" stroke-width="2"></rect><text x="270" y="100" text-anchor="middle" dominant-baseline="middle" font-size="14" fill="#0F1115" class="font-medium">Team bilden</text><path d="M 340 100 L 380 100" stroke="#E21C2A" stroke-width="2" marker-end="url(#arrow-1)"></path><defs><marker id="arrow-1" markerWidth="10" markerHeight="10" refX="9" refY="3" orient="auto" markerUnits="strokeWidth"><path d="M0,0 L0,6 L9,3 z" fill="#E21C2A"></path></marker></defs></g><g><rect x="380" y="60" width="140" height="80" rx="8" fill="#E21C2A" opacity="0.1" stroke="#E21C2A" stroke-width="2"></rect><text x="450" y="100" text-anchor="middle" dominant-baseline="middle" font-size="14" fill="#0F1115" class="font-medium">Ursache</text><path d="M 520 100 L 560 100" stroke="#E21C2A" stroke-width="2" marker-end="url(#arrow-2)"></path><defs><marker id="arrow-2" markerWidth="10" markerHeight="10" refX="9" refY="3" orient="auto" markerUnits="strokeWidth"><path d="M0,0 L0,6 L9,3 z" fill="#E21C2A"></path></marker></defs></g><g><rect x="560" y="60" width="140" height="80" rx="8" fill="#22c55e" opacity="0.2" stroke="#22c55e" stroke-width="2"></rect><text x="630" y="100" text-anchor="middle" dominant-baseline="middle" font-size="14" fill="#0F1115" class="font-medium">Maßnahmen + Verifi...</text><defs><marker id="arrow-3" markerWidth="10" markerHeight="10" refX="9" refY="3" orient="auto" markerUnits="strokeWidth"><path d="M0,0 L0,6 L9,3 z" fill="#E21C2A"></path></marker></defs></g></svg>